<?xml version="1.0" standalone="no"?>
<!DOCTYPE svg PUBLIC "-//W3C//DTD SVG 20010904//EN"
 "http://www.w3.org/TR/2001/REC-SVG-20010904/DTD/svg10.dtd">
<svg version="1.0" xmlns="http://www.w3.org/2000/svg"
 width="1386.000000pt" height="1386.000000pt" viewBox="0 0 1386.000000 1386.000000"
 preserveAspectRatio="xMidYMid meet">
<metadata>
Created by potrace 1.14, written by Peter Selinger 2001-2017
</metadata>
<g transform="translate(0.000000,1386.000000) scale(0.100000,-0.100000)"
fill="#000000" stroke="none">
<path d="M6795 10670 c-274 -37 -389 -60 -670 -135 -54 -15 -216 -68 -350
-115 -294 -104 -740 -361 -1044 -603 -141 -113 -420 -382 -521 -502 -77 -92
-258 -332 -317 -420 -90 -135 -215 -364 -283 -520 -12 -27 -28 -63 -35 -80
-36 -81 -66 -162 -104 -285 -24 -74 -46 -144 -50 -155 -8 -20 -47 -173 -76
-302 -80 -352 -95 -897 -35 -1293 22 -146 24 -158 71 -360 104 -455 318 -935
586 -1315 247 -350 591 -705 878 -907 28 -19 91 -64 141 -99 85 -59 122 -83
229 -147 66 -40 323 -166 435 -214 324 -140 606 -217 1015 -280 131 -19 189
-22 450 -23 314 0 433 11 722 65 225 43 524 134 728 222 183 79 458 226 595
317 429 286 727 562 1013 938 270 355 529 896 637 1333 11 47 25 101 30 120
16 64 59 284 74 390 36 236 43 676 16 900 -37 300 -140 743 -206 887 -7 17
-14 35 -14 40 0 16 -101 252 -166 388 -117 247 -356 602 -547 816 -95 106
-311 320 -402 399 -136 117 -420 319 -592 418 -114 66 -334 178 -444 225 -231
100 -536 198 -732 237 -273 54 -370 63 -677 66 -162 1 -322 -1 -355 -6z m625
-501 c229 -21 529 -94 775 -187 28 -11 75 -29 105 -41 75 -28 323 -150 412
-202 441 -256 847 -620 1104 -989 147 -212 165 -243 257 -425 223 -444 331
-836 359 -1302 40 -674 -114 -1326 -457 -1938 -61 -109 -89 -154 -207 -326
-21 -31 -85 -112 -142 -180 -276 -330 -658 -630 -1071 -841 -194 -99 -516
-216 -710 -257 -55 -12 -120 -26 -145 -31 -60 -13 -233 -38 -345 -50 -310 -32
-752 22 -1150 142 -93 28 -129 41 -290 103 -217 85 -444 206 -639 341 -54 38
-108 76 -120 83 -11 8 -52 40 -91 70 -541 426 -920 980 -1133 1656 -83 263
-122 466 -142 730 -17 240 -8 575 20 748 6 31 15 85 20 120 45 274 148 594
281 873 210 441 633 944 1052 1252 247 182 507 329 747 424 516 205 987 275
1510 227z"/>
<path d="M7027 9895 c-259 -44 -446 -207 -530 -463 -32 -96 -31 -306 0 -404
37 -114 110 -234 185 -304 115 -109 287 -174 463 -174 308 0 556 177 652 465
24 71 27 96 28 215 0 117 -3 144 -24 205 -62 180 -191 326 -358 406 -72 34
-223 69 -293 68 -25 -1 -80 -7 -123 -14z"/>
<path d="M5633 9351 c-57 -25 -575 -431 -609 -478 -128 -175 38 -409 244 -342
49 16 125 68 312 214 85 66 185 143 221 170 110 82 145 151 128 255 -17 106
-100 179 -213 186 -34 2 -71 0 -83 -5z"/>
<path d="M8464 9333 c-114 -64 -162 -182 -117 -284 31 -69 64 -102 250 -242
96 -73 217 -164 269 -204 116 -87 165 -103 246 -79 29 8 69 27 89 40 92 63
109 225 32 311 -18 21 -179 151 -342 276 -254 195 -261 199 -336 199 -39 0
-71 -6 -91 -17z"/>
<path d="M7334 7977 c-3 -8 -4 -128 -2 -268 l3 -254 360 0 c198 0 366 -1 373
-3 9 -2 12 -255 12 -1227 l0 -1225 254 0 c140 0 261 3 270 6 14 6 16 123 16
1225 l0 1218 37 7 c20 4 193 4 385 1 l348 -7 0 270 0 270 -1025 0 c-846 0
-1027 -2 -1031 -13z"/>
<path d="M4930 7430 l0 -550 -357 0 c-398 0 -401 -1 -471 -71 -51 -50 -66 -86
-66 -159 0 -98 44 -169 134 -216 32 -17 66 -19 397 -22 l363 -3 2 -702 3 -702
165 -3 c91 -2 211 0 267 3 l103 7 2 521 3 522 221 3 221 2 124 -159 c68 -87
169 -218 224 -291 55 -73 176 -230 269 -349 93 -119 175 -226 184 -238 l14
-23 335 0 c216 0 333 4 331 10 -4 13 -69 97 -267 348 -90 114 -238 306 -329
427 -91 121 -192 253 -224 293 -32 40 -58 75 -58 78 0 2 27 17 60 34 178 90
320 231 410 410 40 78 69 179 87 296 15 106 15 121 0 231 -38 271 -156 480
-364 645 -85 68 -125 91 -233 135 -177 72 -189 73 -907 73 l-643 0 0 -550z
m1330 16 c200 -78 326 -291 290 -493 -26 -149 -120 -276 -255 -343 l-70 -35
-376 -3 -376 -3 -7 400 c-4 220 -4 423 0 451 l7 51 371 -4 c324 -3 377 -5 416
-21z"/>
<path d="M9155 6858 c-93 -47 -141 -132 -132 -228 10 -104 59 -168 157 -204
40 -15 90 -17 435 -14 379 3 391 4 431 25 119 63 165 192 110 308 -28 60 -56
87 -116 114 -43 20 -63 21 -445 20 -385 0 -402 -1 -440 -21z"/>
<path d="M5235 4814 c-132 -49 -185 -220 -104 -338 52 -76 406 -306 669 -435
199 -98 432 -184 640 -236 58 -14 121 -30 140 -35 19 -5 98 -19 175 -31 182
-29 562 -32 750 -5 460 64 870 208 1231 432 159 98 366 234 392 258 71 64 90
202 39 288 -35 60 -67 85 -135 104 -95 28 -142 12 -281 -94 -294 -225 -595
-383 -886 -466 -286 -82 -417 -101 -695 -101 -278 0 -462 25 -705 96 -200 59
-490 186 -620 271 -27 19 -71 46 -98 61 -26 15 -106 69 -178 118 -126 88 -214
130 -268 128 -14 0 -44 -7 -66 -15z"/>
<path d="M13 3 c9 -2 25 -2 35 0 9 3 1 5 -18 5 -19 0 -27 -2 -17 -5z"/>
<path d="M13828 3 c6 -2 18 -2 25 0 6 3 1 5 -13 5 -14 0 -19 -2 -12 -5z"/>
</g>
</svg>
